<svg width="52" height="52" viewBox="0 0 52 52" fill="none" xmlns="http://www.w3.org/2000/svg">
<path d="M26 0.5C40.0833 0.5 51.5 11.9167 51.5 26C51.5 40.0833 40.0833 51.5 26 51.5C11.9167 51.5 0.5 40.0833 0.5 26C0.5 11.9167 11.9167 0.5 26 0.5Z" fill="#0A0D12" fill-opacity="0.6"/>
<path d="M26 0.5C40.0833 0.5 51.5 11.9167 51.5 26C51.5 40.0833 40.0833 51.5 26 51.5C11.9167 51.5 0.5 40.0833 0.5 26C0.5 11.9167 11.9167 0.5 26 0.5Z" stroke="#181D27"/>
<path d="M30.44 17.1C28.63 17.1 27.01 17.98 26 19.33C24.99 17.98 23.37 17.1 21.56 17.1C18.49 17.1 16 19.6 16 22.69C16 23.88 16.19 24.98 16.52 26C18.1 31 22.97 33.99 25.38 34.81C25.72 34.93 26.28 34.93 26.62 34.81C29.03 33.99 33.9 31 35.48 26C35.81 24.98 36 23.88 36 22.69C36 19.6 33.51 17.1 30.44 17.1Z" fill="#961200"/>
</svg>
